<svg width="167" height="27" viewBox="0 0 167 27" fill="none" xmlns="http://www.w3.org/2000/svg">
<path d="M5.07528 0.636363V21H0.769886V0.636363H5.07528ZM7.84197 4.18608V0.636363H24.5664V4.18608H18.332V21H14.0763V4.18608H7.84197ZM35.9091 9.13778V12.4986H26.6222V9.13778H35.9091ZM43.108 21H38.4943L45.5241 0.636363H51.0724L58.0923 21H53.4787L48.3778 5.28977H48.2188L43.108 21ZM42.8196 12.9957H53.7173V16.3565H42.8196V12.9957ZM66.6534 21.2983C65.089 21.2983 63.7434 20.9669 62.6165 20.304C61.4962 19.6345 60.6345 18.7064 60.0312 17.5199C59.4347 16.3333 59.1364 14.9678 59.1364 13.4233C59.1364 11.8589 59.438 10.4867 60.0412 9.30682C60.651 8.12026 61.5161 7.19555 62.6364 6.53267C63.7566 5.86316 65.089 5.52841 66.6335 5.52841C67.9659 5.52841 69.1326 5.77036 70.1335 6.25426C71.1345 6.73816 71.9266 7.41761 72.5099 8.29261C73.0933 9.16761 73.4148 10.1951 73.4744 11.375H69.4773C69.3646 10.6127 69.0663 9.99953 68.5824 9.53551C68.1051 9.06487 67.4787 8.82955 66.7031 8.82955C66.0469 8.82955 65.4735 9.00852 64.983 9.36648C64.4991 9.7178 64.1212 10.2315 63.8494 10.9077C63.5777 11.5838 63.4418 12.4025 63.4418 13.3636C63.4418 14.3381 63.5743 15.1667 63.8395 15.8494C64.1113 16.5322 64.4924 17.0526 64.983 17.4105C65.4735 17.7685 66.0469 17.9474 66.7031 17.9474C67.187 17.9474 67.6212 17.848 68.0057 17.6491C68.3968 17.4503 68.7183 17.1619 68.9702 16.7841C69.2287 16.3996 69.3977 15.9389 69.4773 15.402H73.4744C73.4081 16.5687 73.09 17.5961 72.5199 18.4844C71.9564 19.366 71.1776 20.0554 70.1832 20.5526C69.1889 21.0497 68.0123 21.2983 66.6534 21.2983ZM80.5415 21.2884C79.5671 21.2884 78.6987 21.1193 77.9364 20.7812C77.1741 20.4366 76.5709 19.9295 76.1268 19.2599C75.6893 18.5838 75.4705 17.742 75.4705 16.7344C75.4705 15.8859 75.6263 15.1733 75.9379 14.5966C76.2494 14.0199 76.6737 13.5559 77.2106 13.2045C77.7475 12.8532 78.3574 12.5881 79.0401 12.4091C79.7295 12.2301 80.4521 12.1042 81.2077 12.0312C82.096 11.9384 82.8119 11.8523 83.3555 11.7727C83.899 11.6866 84.2934 11.5606 84.5387 11.3949C84.784 11.2292 84.9066 10.9839 84.9066 10.6591V10.5994C84.9066 9.9697 84.7077 9.48248 84.31 9.13778C83.9189 8.79309 83.3621 8.62074 82.6396 8.62074C81.8772 8.62074 81.2707 8.78977 80.82 9.12784C80.3692 9.45928 80.0709 9.87689 79.9251 10.3807L76.0075 10.0625C76.2063 9.13447 76.5974 8.33239 77.1808 7.65625C77.7641 6.97348 78.5165 6.44981 79.4379 6.08523C80.3659 5.71401 81.4397 5.52841 82.6594 5.52841C83.5079 5.52841 84.32 5.62784 85.0955 5.8267C85.8777 6.02557 86.5704 6.33381 87.1737 6.75142C87.7835 7.16903 88.2641 7.70597 88.6154 8.36222C88.9667 9.01184 89.1424 9.79072 89.1424 10.6989V21H85.1254V18.8821H85.006C84.7608 19.3594 84.4326 19.7803 84.0217 20.1449C83.6107 20.5028 83.1168 20.7846 82.5401 20.9901C81.9634 21.1889 81.2972 21.2884 80.5415 21.2884ZM81.7546 18.3651C82.3777 18.3651 82.9279 18.2424 83.4052 17.9972C83.8825 17.7453 84.257 17.4072 84.5288 16.983C84.8005 16.5587 84.9364 16.0781 84.9364 15.5412V13.9205C84.8039 14.0066 84.6216 14.0862 84.3896 14.1591C84.1642 14.2254 83.909 14.2884 83.6239 14.348C83.3389 14.401 83.0539 14.4508 82.7688 14.4972C82.4838 14.5369 82.2253 14.5734 81.9933 14.6065C81.4961 14.6795 81.0619 14.7955 80.6907 14.9545C80.3195 15.1136 80.0311 15.3291 79.8256 15.6009C79.6201 15.866 79.5174 16.1974 79.5174 16.5952C79.5174 17.1719 79.7262 17.6127 80.1438 17.9176C80.5681 18.2159 81.105 18.3651 81.7546 18.3651ZM98.0565 21.2486C96.8964 21.2486 95.8458 20.9503 94.9045 20.3537C93.9698 19.7505 93.2274 18.8655 92.6772 17.6989C92.1336 16.5256 91.8619 15.0871 91.8619 13.3835C91.8619 11.6335 92.1436 10.1785 92.707 9.01847C93.2705 7.8518 94.0195 6.98011 94.9542 6.40341C95.8955 5.82008 96.9263 5.52841 98.0465 5.52841C98.9016 5.52841 99.6142 5.67424 100.184 5.96591C100.761 6.25095 101.225 6.6089 101.576 7.03977C101.934 7.46401 102.206 7.88163 102.392 8.29261H102.521V0.636363H106.747V21H102.571V18.554H102.392C102.193 18.9782 101.911 19.3991 101.547 19.8168C101.189 20.2277 100.721 20.5691 100.145 20.8409C99.5745 21.1127 98.8784 21.2486 98.0565 21.2486ZM99.3988 17.8778C100.082 17.8778 100.658 17.6922 101.129 17.321C101.606 16.9432 101.971 16.4162 102.223 15.7401C102.481 15.0639 102.61 14.2718 102.61 13.3636C102.61 12.4555 102.484 11.6667 102.233 10.9972C101.981 10.3277 101.616 9.81061 101.139 9.44602C100.662 9.08144 100.082 8.89915 99.3988 8.89915C98.7028 8.89915 98.1161 9.08807 97.6388 9.46591C97.1616 9.84375 96.8003 10.3674 96.555 11.0369C96.3098 11.7064 96.1871 12.482 96.1871 13.3636C96.1871 14.2519 96.3098 15.0374 96.555 15.7202C96.8069 16.3963 97.1682 16.9266 97.6388 17.3111C98.1161 17.6889 98.7028 17.8778 99.3988 17.8778ZM117.19 21.2983C115.619 21.2983 114.266 20.9801 113.133 20.3438C112.006 19.7008 111.138 18.7926 110.528 17.6193C109.918 16.4394 109.613 15.044 109.613 13.4332C109.613 11.8622 109.918 10.4834 110.528 9.29688C111.138 8.11032 111.996 7.18561 113.103 6.52273C114.217 5.85985 115.522 5.52841 117.021 5.52841C118.028 5.52841 118.966 5.69081 119.835 6.01562C120.71 6.33381 121.472 6.81439 122.121 7.45739C122.778 8.10038 123.288 8.90909 123.653 9.88352C124.017 10.8513 124.2 11.9848 124.2 13.2841V14.4474H111.303V11.8224H120.212C120.212 11.2126 120.08 10.6723 119.815 10.2017C119.549 9.73106 119.182 9.36316 118.711 9.09801C118.247 8.82623 117.707 8.69034 117.09 8.69034C116.447 8.69034 115.877 8.83949 115.38 9.13778C114.889 9.42945 114.505 9.82386 114.227 10.321C113.948 10.8116 113.806 11.3584 113.799 11.9616V14.4574C113.799 15.2131 113.938 15.866 114.217 16.4162C114.502 16.9664 114.903 17.3906 115.42 17.6889C115.937 17.9872 116.55 18.1364 117.259 18.1364C117.73 18.1364 118.161 18.0701 118.552 17.9375C118.943 17.8049 119.278 17.6061 119.556 17.3409C119.835 17.0758 120.047 16.7509 120.192 16.3665L124.11 16.625C123.911 17.5663 123.504 18.3883 122.887 19.0909C122.277 19.7869 121.488 20.3305 120.521 20.7216C119.559 21.1061 118.449 21.2983 117.19 21.2983ZM126.964 21V5.72727H131.001V8.42188H131.18C131.498 7.52699 132.028 6.82102 132.771 6.30398C133.513 5.78693 134.401 5.52841 135.435 5.52841C136.483 5.52841 137.374 5.79025 138.11 6.31392C138.846 6.83097 139.336 7.53362 139.582 8.42188H139.741C140.052 7.54688 140.616 6.84754 141.431 6.32386C142.253 5.79356 143.224 5.52841 144.344 5.52841C145.77 5.52841 146.926 5.98248 147.815 6.89062C148.71 7.79214 149.157 9.0715 149.157 10.7287V21H144.931V11.5639C144.931 10.7154 144.706 10.0791 144.255 9.65483C143.804 9.23059 143.241 9.01847 142.565 9.01847C141.796 9.01847 141.196 9.26373 140.765 9.75426C140.334 10.2382 140.119 10.8778 140.119 11.6733V21H136.012V11.4744C136.012 10.7254 135.797 10.1288 135.366 9.68466C134.942 9.24053 134.381 9.01847 133.685 9.01847C133.215 9.01847 132.79 9.13778 132.413 9.37642C132.041 9.60843 131.746 9.93655 131.528 10.3608C131.309 10.7784 131.2 11.2689 131.2 11.8324V21H126.964ZM154.571 26.7273C154.034 26.7273 153.53 26.6842 153.06 26.598C152.596 26.5185 152.211 26.4157 151.906 26.2898L152.861 23.1278C153.358 23.2803 153.805 23.3632 154.203 23.3764C154.607 23.3897 154.955 23.2969 155.247 23.098C155.545 22.8991 155.787 22.5611 155.973 22.0838L156.222 21.4375L150.743 5.72727H155.197L158.359 16.9432H158.518L161.71 5.72727H166.195L160.259 22.6506C159.973 23.4725 159.586 24.1884 159.095 24.7983C158.611 25.4148 157.998 25.8887 157.256 26.2202C156.513 26.5582 155.618 26.7273 154.571 26.7273Z" fill="black"/>
</svg>
